# xmcd
#
# Track frame offsets: 
#        150
#        22285
#        42141
#        64265
#        85032
#        126750
#
# Disc length: 2647 seconds
#
# Revision: 0
# Processed by: cddbd v1.5.2PL0 Copyright (c) Steve Scherf et al.
# Submitted via: ExactAudioCopy v0.99pb5
#
DISCID=4b0a5506
DTITLE=Stevie Ray Vaughan And Double Trouble - SRV Alpine Valley 1990 
DTITLE=Disc 2
DYEAR=1990
DGENRE=Blues
TTITLE0=Superstition
TTITLE1=Couldn't Stand The Wheather
TTITLE2=Goin' Down
TTITLE3=Crossfire
TTITLE4=Voodoo Child (Slight Return)
TTITLE5=Sweet Home Chicago
EXTD=
EXTT0=
EXTT1=
EXTT2=
EXTT3=
EXTT4=
EXTT5=
PLAYORDER=
